<svg width="92" height="93" viewBox="0 0 92 93" fill="none" xmlns="http://www.w3.org/2000/svg">
<path d="M76.5337 15.8667H15.3037C11.0826 15.8667 7.6499 19.3102 7.6499 23.5446V69.6115C7.6499 73.8458 11.0826 77.2893 15.3037 77.2893H76.5337C80.7548 77.2893 84.1875 73.8458 84.1875 69.6115V23.5446C84.1875 19.3102 80.7548 15.8667 76.5337 15.8667ZM24.8709 27.3835C28.0433 27.3835 30.6112 29.9632 30.6112 33.1418C30.6112 36.3205 28.0433 38.9002 24.8709 38.9002C21.6984 38.9002 19.1305 36.3205 19.1305 33.1418C19.1305 29.9632 21.6984 27.3835 24.8709 27.3835ZM45.9187 65.7726H34.4381H19.1305L34.4381 46.578L40.1784 54.2558L51.659 38.9002L72.7069 65.7726H45.9187Z" fill="#0397C9"/>
</svg>
