<svg width="92" height="94" viewBox="0 0 92 94" fill="none" xmlns="http://www.w3.org/2000/svg">
<path d="M76.5417 16.3115H15.3083C11.0871 16.3115 7.65417 19.7552 7.65417 23.9898V70.0592C7.65417 74.2937 11.0871 77.7374 15.3083 77.7374H76.5417C80.7629 77.7374 84.1958 74.2937 84.1958 70.0592V23.9898C84.1958 19.7552 80.7629 16.3115 76.5417 16.3115ZM19.1354 33.5876C19.1354 32.528 19.9927 31.668 21.049 31.668H32.5302C33.5865 31.668 34.4438 32.528 34.4438 33.5876V41.2658C34.4438 42.3254 33.5865 43.1854 32.5302 43.1854H21.049C19.9927 43.1854 19.1354 42.3254 19.1354 41.2658V33.5876ZM42.0979 62.3809H19.1354V54.7027H42.0979V62.3809ZM72.7146 62.3809H49.7521V54.7027H72.7146V62.3809Z" fill="#F48120"/>
</svg>
