<svg width="92" height="92" viewBox="0 0 92 92" fill="none" xmlns="http://www.w3.org/2000/svg">
<path d="M15.3083 42.0979H38.2708C40.3872 42.0979 42.0979 40.3872 42.0979 38.2708V15.3083C42.0979 13.192 40.3872 11.4812 38.2708 11.4812H15.3083C13.192 11.4812 11.4813 13.192 11.4813 15.3083V38.2708C11.4813 40.3872 13.192 42.0979 15.3083 42.0979ZM53.5792 42.0979H76.5417C78.6581 42.0979 80.3688 40.3872 80.3688 38.2708V15.3083C80.3688 13.192 78.6581 11.4812 76.5417 11.4812H53.5792C51.4628 11.4812 49.7521 13.192 49.7521 15.3083V38.2708C49.7521 40.3872 51.4628 42.0979 53.5792 42.0979ZM15.3083 80.3687H38.2708C40.3872 80.3687 42.0979 78.658 42.0979 76.5417V53.5792C42.0979 51.4628 40.3872 49.7521 38.2708 49.7521H15.3083C13.192 49.7521 11.4813 51.4628 11.4813 53.5792V76.5417C11.4813 78.658 13.192 80.3687 15.3083 80.3687ZM65.0604 80.3687C73.503 80.3687 80.3688 73.503 80.3688 65.0604C80.3688 56.6179 73.503 49.7521 65.0604 49.7521C56.6179 49.7521 49.7521 56.6179 49.7521 65.0604C49.7521 73.503 56.6179 80.3687 65.0604 80.3687Z" fill="#B1D136"/>
</svg>
