<svg width="1467" height="338" viewBox="0 0 1467 338" fill="none" xmlns="http://www.w3.org/2000/svg">
<path d="M1467 0H1V179.45C1 179.45 342.5 276.708 737.5 279.5C1083 281.942 1467 207.5 1467 207.5V0Z" fill="#00BCF1"/>
<mask id="mask0_322_296" style="mask-type:alpha" maskUnits="userSpaceOnUse" x="0" y="0" width="1467" height="338">
<path d="M1466 -5.04879e-05L0 3.36499L0.76666 337.364L1466.76 333.999L1466 -5.04879e-05Z" fill="#00BCF1"/>
</mask>
<g mask="url(#mask0_322_296)">
<path d="M75.2048 208.691C66.5493 206.346 49.577 201.751 43.0661 199.975C40.3189 199.23 36.7432 198.246 35.1627 197.818C33.618 197.353 30.3777 196.374 27.9673 195.67L23.1451 194.228L22.3166 193.988L19.0012 192.994L15.4972 191.935C11.8437 190.863 8.07659 189.741 6.53188 189.276L3.55641 188.395C2.8027 188.171 -0.6996 187.148 -3.26162 186.378C-5.42692 187.236 -6.7976 188.426 -7.33368 189.999C-7.63705 190.841 -7.34575 191.66 -6.74291 191.854C-6.13894 192.048 -5.20891 193.006 -4.68765 193.997C-4.44748 194.44 -4.13322 194.861 -3.78352 195.245C-0.84453 196.145 3.52714 197.497 8.42609 198.991L26.9277 204.629C28.4338 205.06 31.8972 206.03 34.608 206.795C37.3187 207.559 41.1209 208.625 43.0417 209.184C49.1035 210.905 53.1317 212.035 57.8003 213.357C60.3216 214.038 64.8057 215.404 68.0756 216.183C73.2285 217.505 77.8923 218.701 82.1801 219.803C91.7324 222.223 100.35 224.551 108.657 226.53C116.999 228.472 124.815 230.289 132.331 232.046C139.847 233.802 146.989 235.518 154.345 236.992C162.08 238.631 173.231 240.973 184.983 243.453C196.842 245.804 209.407 248.11 219.65 250.088C224.115 250.949 231.094 252.31 239.866 253.784L240.654 253.934C246.091 254.885 252.127 255.939 258.764 257.096C265.4 258.254 272.565 259.572 280.393 260.739C311.95 265.866 360.338 272.885 417.968 279.013C475.598 285.159 542.571 290.157 609.83 292.834C677.09 295.583 744.526 296.05 802.595 295.066C817.117 294.951 831.03 294.479 844.24 294.142C850.826 293.965 857.264 293.795 863.478 293.632L881.515 292.915C893.118 292.44 903.833 292.071 913.536 291.614C923.238 291.103 931.937 290.648 939.445 290.237C958.445 289.34 975.829 288.068 991.213 287.09C1006.63 286.164 1019.96 284.992 1030.92 284.181C1037.64 283.656 1045.26 283.061 1053.24 282.435C1061.22 281.718 1069.57 280.969 1077.85 280.223C1086.09 279.46 1094.26 278.791 1101.79 278.036C1109.32 277.264 1116.23 276.57 1122.05 275.971C1145.36 273.699 1166.01 271.222 1168.2 270.995L1173.95 270.308L1179.4 269.687C1180.47 269.538 1186.34 268.956 1194.86 267.893C1203.39 266.831 1214.59 265.432 1226.56 263.933C1238.57 262.503 1251.5 260.588 1262.88 259.075C1274.21 257.51 1283.96 256.202 1289.22 255.372C1302.59 253.349 1316.67 251.319 1331.15 249.075C1345.58 246.724 1360.62 244.368 1375.98 241.802C1391.34 239.144 1407.1 236.419 1423.2 233.644C1439.52 230.896 1456.17 228.1 1473.09 225.258C1481.53 223.838 1490.05 222.397 1498.63 220.971C1502.93 220.249 1507.22 219.527 1511.51 218.805C1515.81 218.101 1520.22 217.519 1524.59 216.867C1542.08 214.328 1559.7 211.748 1577.41 209.183C1586.27 207.891 1595.11 206.6 1603.97 205.326L1610.6 204.354L1617.31 203.522L1630.7 201.861C1648.57 199.65 1666.36 197.444 1684.01 195.26C1689.27 194.61 1694.42 193.964 1699.47 193.34C1704.51 192.716 1709.48 192.077 1714.38 191.603C1724.17 190.601 1733.55 189.632 1742.61 188.694C1760.72 186.836 1777.37 185.124 1792.96 183.523C1808.5 181.781 1823.06 180.797 1836.73 179.631C1850.43 178.518 1863.28 177.454 1875.57 176.448C1887.9 175.477 1899.62 174.402 1911.15 173.623C1922.7 172.916 1933.97 172.219 1945.29 171.52C1956.63 170.821 1967.96 170.121 1979.63 169.41C1985.46 169.046 1991.37 168.696 1997.44 168.322C2000.45 168.136 2003.49 167.949 2006.58 167.76C2009.66 167.643 2012.78 167.507 2015.95 167.37C2030.04 166.783 2051.9 165.885 2075.71 164.895C2081.65 164.652 2087.76 164.403 2093.86 164.137C2099.96 163.907 2106.13 163.565 2112.19 163.498C2124.36 163.237 2136.35 162.982 2147.37 162.747C2158.38 162.512 2169.77 162.243 2180.94 162.002C2186.52 161.881 2192.02 161.764 2197.42 161.632C2202.82 161.501 2208.07 161.392 2213.09 161.419C2233.24 161.38 2250.07 161.339 2258.64 161.323C2311 160.897 2343.97 162.035 2366.44 162.359C2388.88 162.812 2400.72 162.905 2410.31 163.265C2422.11 163.722 2444.6 164.606 2460.34 165.221C2468.17 165.539 2478.02 165.907 2487.53 166.288C2497.04 166.668 2506.25 166.971 2512.76 167.447C2521.53 167.965 2536.76 168.869 2555.39 169.989C2564.72 170.54 2574.88 171.148 2585.51 171.794C2590.86 172.115 2596.27 172.435 2601.79 172.768C2607.28 173.157 2612.81 173.652 2618.38 174.073C2640.61 175.869 2663.25 177.705 2683.24 179.332L2697.7 180.501C2702.32 180.85 2706.64 181.391 2710.78 181.776C2719.01 182.62 2726.18 183.361 2731.98 183.954C2743.05 185.089 2756.59 186.473 2769.49 187.791C2775.92 188.451 2782.23 189.097 2787.95 189.693C2793.72 190.252 2798.88 190.816 2803.07 191.379C2818.9 193.363 2834.96 195.356 2853.44 197.673C2862.69 198.823 2872.53 200.058 2883.27 201.404L2891.51 202.428C2894.27 202.811 2897.09 203.247 2899.97 203.661C2905.74 204.509 2911.73 205.401 2918.02 206.337C2934.17 208.743 2957.88 212.252 2970.73 214.168C2976.75 215.078 2982.59 215.905 2988.41 216.822C2994.17 217.76 2999.95 218.715 3005.94 219.698C3011.98 220.716 3018.47 221.808 3026.3 223.119L3035.79 224.746L3044.37 226.246C3046.06 226.561 3055.55 228.26 3065.45 230.053L3079.33 232.617C3080.18 232.548 3081.15 232.421 3082.07 232.26C3084.15 231.893 3086.44 231.715 3087.16 231.851C3087.87 231.987 3089.53 231.635 3090.89 231.042C3093.46 229.952 3094.82 228.762 3095.15 227.45C3092.23 226.874 3088.24 226.086 3087.42 225.919L3084.01 225.253L3073.77 223.275L3069.7 222.508L3065.88 221.803L3064.94 221.622L3059.4 220.586L3051.1 219.057C3049.3 218.728 3045.29 217.995 3042.18 217.426L3034.79 216.099L3030.07 215.248L3018.63 213.279C3010.72 211.97 3002.74 210.629 2994.83 209.321C2986.88 208.051 2978.98 206.923 2971.42 205.764C2956.24 203.485 2942.27 201.377 2930.95 199.692C2921.18 198.256 2908.25 196.234 2895.19 194.38C2881.98 192.713 2868.73 191.029 2858.58 189.751C2851.73 188.872 2841.21 187.536 2828.08 185.866C2821.49 185.032 2814.27 184.113 2806.52 183.124C2798.77 182.099 2790.29 181.372 2781.54 180.402C2746.27 176.824 2704.72 171.984 2663.97 169.028C2643.67 167.375 2623.8 165.743 2605.37 164.237C2586.78 163.097 2569.68 162.065 2555.09 161.171C2540.49 160.278 2528.39 159.544 2519.85 159.018C2511.29 158.493 2506.33 158.193 2505.96 158.207C2505.85 158.211 2490.14 157.558 2470.75 156.775C2451.34 155.991 2425.57 154.943 2413.33 154.449C2404.12 154.038 2388.39 153.892 2368.08 153.45C2357.9 153.257 2346.61 153.033 2334.38 152.792C2322.12 152.605 2308.99 152.144 2295.06 152.273C2267.24 152.295 2236.66 152.331 2205.12 152.367C2173.52 153.02 2140.99 153.707 2109.32 154.362C2088.82 155.083 2065.55 156.124 2043.46 157.014C2032.41 157.467 2021.62 157.91 2011.65 158.324C2006.67 158.493 2001.88 158.801 1997.34 159.081C1992.81 159.361 1988.54 159.612 1984.59 159.87C2006.73 158.257 2028.99 157.597 2051.18 156.559L2084.5 155.12C2095.62 154.663 2106.7 154.064 2117.83 153.914C2162.23 152.995 2206.72 151.476 2251.05 151.751C2339.86 150.923 2428.21 153.76 2516.03 157.664L2581.63 161.541L2598.01 162.51L2606.22 162.995C2608.95 163.18 2611.64 163.422 2614.37 163.626L2646.87 166.244L2679.38 168.861L2695.63 170.161C2701.04 170.589 2706.47 171.016 2711.81 171.608L2776.17 178.186L2792.24 179.836C2797.59 180.392 2803.01 180.892 2808.25 181.596L2840.02 185.56C2861.17 188.245 2882.46 190.744 2903.5 193.597L2966.13 202.895C2976.54 204.469 2987.02 205.951 2997.41 207.599C3007.75 209.267 3018.06 210.971 3028.36 212.731C3049.06 216.246 3069.65 219.909 3090.1 223.723C3090.58 223.055 3090.88 222.105 3090.57 221.538C3090.4 221.238 3086.79 220.309 3082.52 219.459C3077.61 218.489 3074.67 217.716 3074.55 217.359C3074.46 217.038 3072.42 216.428 3069.98 215.979C3067.58 215.528 3065.21 214.823 3064.75 214.389C3064.24 213.939 3062.96 213.572 3061.7 213.511C3060.5 213.448 3059.45 213.217 3059.37 213.021C3059.28 212.808 3056.73 212.218 3053.65 211.721C3050.58 211.223 3047.21 210.52 3046.15 210.126C3045.09 209.751 3043.74 209.549 3043.15 209.68C3042.52 209.83 3041.4 209.638 3040.42 209.224C3039.51 208.843 3037.63 208.498 3036.26 208.46C3034.47 208.419 3033.86 208.244 3034.15 207.889C3034.28 207.722 3034.02 207.533 3033.52 207.354L3033.11 207.207C3033.11 207.207 3033.11 207.188 3032.73 207.113L3031.57 206.886L3026.47 205.959C3019.39 204.728 3011.7 203.61 3009.63 203.635C3007.35 203.666 3004.87 203.182 3000.13 201.845C2995.05 200.429 2992.61 200.07 2988.66 199.895C2984.71 199.737 2983.02 199.476 2980.49 198.56C2977.99 197.662 2976.61 197.443 2973.82 197.476C2971.89 197.513 2967.58 196.99 2964.24 196.34C2960.9 195.689 2958.02 195.31 2957.88 195.533C2957.73 195.737 2951.27 194.97 2943.51 193.819C2935.72 192.687 2915.83 189.772 2899.14 187.605C2886.65 186.163 2866.59 183.761 2844.43 181.059C2833.36 179.708 2821.76 178.269 2810.27 176.861C2798.78 175.49 2787.23 174.464 2776.65 173.31L2741.95 169.801C2732.23 168.814 2720.93 167.67 2708.64 166.419C2696.23 165.426 2682.78 164.345 2668.96 163.242C2661.27 162.63 2653.9 162.042 2647.14 161.503C2644.49 161.278 2642.09 161.061 2640.04 160.886C2635.97 160.516 2633.42 160.233 2633.34 160.128C2633.19 159.918 2632.74 159.808 2632.29 159.897C2632.18 159.901 2630.76 159.829 2628.23 159.672C2625.72 159.495 2622.14 159.252 2617.77 158.947C2609.06 158.229 2596.91 157.749 2583.73 157.002C2557.34 155.579 2532.04 154.278 2527.48 154.089C2522.93 153.936 2512.67 153.367 2504.55 153.204C2496.42 153.043 2485.05 152.822 2479.2 152.7C2461.01 152.43 2448.97 152.199 2434.99 151.842C2427.53 151.692 2413.85 151.251 2404.46 151.191C2375.18 151.051 2356.55 150.96 2338.45 150.868L2318.37 150.761L2308.31 150.707L2298.21 150.854C2271.98 151.34 2195.34 151.166 2175.86 151.776C2168.6 151.833 2155.6 151.927 2146.92 151.984C2138.25 152.059 2125.84 152.167 2119.33 152.232C2108.71 152.164 2093.38 152.78 2036.06 154.675C2031.37 154.852 2022.15 155.183 2011.1 155.582C2005.56 155.737 1999.61 156.142 1993.53 156.48C1987.43 156.837 1981.18 157.2 1975.16 157.553C1951.07 158.934 1918.77 160.804 1903.36 161.694C1875.84 163.816 1853.62 165.541 1826.66 167.625C1819.9 168.17 1812.89 168.723 1805.39 169.332C1797.93 170.029 1790.03 170.869 1781.49 171.734C1764.46 173.478 1744.94 175.48 1721.76 177.854C1702.19 179.677 1682.67 182.401 1663.09 184.73C1643.55 187.147 1624.09 189.544 1605.22 191.864C1567.76 197.305 1532.38 202.308 1502.67 206.752C1496.87 207.712 1481.5 210.369 1468.55 212.665C1455.61 214.959 1444.06 216.84 1442.87 216.849C1441.67 216.876 1440.38 217.123 1439.98 217.446C1439.58 217.749 1438.3 218.159 1437.11 218.349C1435.96 218.554 1424.83 220.564 1412.4 222.821C1400.37 225.081 1379.29 229.019 1365.54 231.616C1331.72 237.678 1253.47 250.512 1170.13 259.89C1128.6 264.854 1085.8 268.746 1047.41 272.02C1037.79 272.745 1028.43 273.442 1019.44 274.124C1010.45 274.789 1001.8 275.477 993.584 275.932C977.158 276.914 962.483 277.902 950.213 278.474L949.32 278.507L940.695 278.96C936.345 279.142 924.556 279.642 909.904 280.268C895.205 280.625 879.203 281.03 863.761 281.416C848.312 281.638 833.423 281.912 820.812 282.316C799.021 282.29 784.717 282.272 775.032 282.259C765.347 282.245 760.241 282.167 756.744 282.282C750.007 282.41 736.161 282.662 720.033 282.657C711.985 282.6 703.341 282.53 694.772 282.456C686.165 282.384 677.595 282.329 669.689 282.068C656.711 281.619 644.254 281.206 632.58 280.798C620.938 280.227 610.079 279.698 600.116 279.226C590.154 278.79 581.23 278.224 573.427 277.707C565.622 277.208 558.977 276.791 553.637 276.451L553.639 276.486C549.007 276.156 544.119 275.908 538.85 275.439C530.107 274.722 517.217 273.674 510.23 273.107C497.045 272.142 485.97 270.828 469.217 269.078C463.832 268.504 453.289 267.458 445.879 266.547C438.472 265.689 428.97 264.586 424.779 264.094C422.719 263.811 415.731 263.19 406.375 262.027C397.02 260.882 385.158 259.434 373.034 257.96C360.946 256.449 350.082 254.802 342.069 253.696C338.1 253.124 334.841 252.651 332.556 252.303C330.271 251.957 328.997 251.753 328.921 251.719C328.655 251.566 328.17 251.567 327.804 251.725C327.62 251.805 325.153 251.572 321.446 251.044C319.574 250.772 317.364 250.459 314.93 250.117C308.787 249.194 302.08 248.183 295.075 247.111C244.87 239.33 202.229 230.65 198.44 229.945C160.797 222.43 113.17 210.922 92.5365 205.057L89.865 204.346L88.6612 204.03L88.3596 203.933L87.1915 203.58L84.8934 202.89C83.4244 202.458 82.1442 202.091 81.392 201.903C79.9609 201.488 78.9742 201.001 79.1905 200.813C79.4441 200.623 78.9524 200.424 78.1679 200.364C77.3469 200.323 76.701 199.986 76.7252 199.642C76.7061 199.137 76.443 199.075 75.374 199.368C74.3048 199.661 73.9667 199.584 73.7224 199.033C73.4781 198.483 72.9905 198.393 71.3594 198.599C69.8021 198.784 69.2779 198.714 69.2987 198.279C69.3439 197.501 64.1917 196.197 63.4324 196.804C62.9983 197.145 62.3978 197.024 61.2952 196.433C60.4214 195.979 58.803 195.534 57.6451 195.452C56.3751 195.355 55.4709 195.083 55.3106 194.782C55.188 194.497 54.0945 194.141 52.8602 194.007C51.6259 193.874 48.5069 193.143 45.945 192.373C43.3465 191.623 40.9774 191.026 40.6088 191.13C40.2031 191.236 39.2623 190.982 38.5022 190.578C37.7033 190.138 36.3906 189.899 35.3506 189.975C34.3855 190.065 31.9103 189.617 29.838 188.991C27.7658 188.365 25.6286 187.995 25.0383 188.143C24.3742 188.313 21.4452 187.683 17.1519 186.437C13.6465 185.342 10.1149 184.536 9.52314 184.649C8.33971 184.874 6.83656 185.509 5.96432 186.084L24.8148 192.088C31.1108 194.089 37.3344 196.147 43.8474 197.977L63.2058 203.62C69.6464 205.507 76.0883 207.43 82.7453 209.129C184.301 236.257 295.069 255.832 410.183 268.166C391.629 266.069 365.791 263.398 337.485 259.538C323.191 257.803 308.467 255.525 293.409 253.295C278.281 251.176 263.318 248.492 248.401 246.041C218.784 240.967 190.604 235.495 167.548 230.552C161.765 229.326 156.212 228.255 151.177 227.09C146.142 225.926 141.445 224.84 137.161 223.846C128.556 221.86 121.605 220.263 116.72 219.13C105.176 216.225 86.4857 211.515 75.1669 208.675L75.2048 208.691Z" fill="#00BCF1"/>
<path d="M2667.68 212.666C2666.27 212.744 2666.28 213.217 2667.67 213.709C2668.2 213.891 2678.04 215.246 2694.86 217.484C2703.27 218.604 2713.48 219.927 2725.11 221.466L2743.61 223.894C2750.15 224.692 2756.82 225.881 2763.89 226.94C2777.99 229.118 2793.21 231.481 2809.33 233.955C2825.46 236.47 2842.55 238.897 2859.78 242.188C2877.11 245.299 2895.01 248.511 2913.2 251.774C2922.26 253.446 2931.54 254.974 2940.6 256.784C2949.71 258.593 2958.85 260.4 2967.98 262.228C2984.44 265.836 3000.86 269.564 3013.09 272.425C3019.16 273.867 3024.22 275.083 3027.74 275.927C3031.23 276.774 3033.19 277.289 3033.03 277.294C3032.48 277.348 3031.27 278.073 3030.4 278.905C3030.33 278.986 3028.49 278.664 3025.28 278.047L3011.45 275.348C2999.76 273.043 2983.44 269.824 2964.86 266.316C2954.94 264.374 2944.83 262.436 2934.56 260.503C2924.27 258.61 2913.76 256.881 2903.2 255.035C2882.05 251.364 2860.46 247.646 2838.63 243.856C2816.45 240.589 2794.01 237.269 2771.46 233.954C2765.81 233.131 2760.16 232.286 2754.52 231.462C2748.86 230.619 2743.22 229.776 2737.46 229.133L2703.04 224.915C2691.57 223.508 2680.14 222.101 2668.7 220.694C2662.97 219.991 2657.25 219.287 2651.58 218.583C2645.86 217.938 2640.07 217.414 2634.36 216.828C2611.39 214.549 2588.63 212.303 2566.19 210.087C2555.02 208.869 2543.75 208.108 2532.63 207.263C2521.5 206.418 2510.49 205.59 2499.6 204.759C2477.8 203.155 2456.62 201.297 2435.78 200.414C2415.04 199.312 2394.94 198.252 2375.65 197.226C2370.84 196.969 2366.06 196.712 2361.36 196.472C2356.63 196.253 2351.94 196.169 2347.31 196.007C2338.07 195.718 2329.05 195.444 2320.25 195.184C2302.69 194.641 2286.1 194.149 2270.66 193.664C2262.95 193.353 2255.51 193.348 2248.34 193.297C2241.19 193.245 2234.34 193.184 2227.83 193.134C2201.74 192.934 2180.85 192.762 2166.47 192.66C2159.28 192.649 2153.66 192.83 2149.86 192.859L2145.5 192.944L2143.94 192.989C2141.68 193.329 2140.69 193.732 2141.81 193.838C2142.03 193.851 2144.19 193.869 2148.21 193.852C2152.2 193.856 2158.01 193.769 2165.42 193.814C2180.25 194.04 2201.64 194.375 2228.24 194.797C2234.87 194.903 2241.88 194.998 2249.14 195.106L2260.29 195.281C2264.09 195.369 2267.93 195.555 2271.84 195.68C2287.54 196.256 2304.35 196.879 2322.13 197.533C2357.78 198.465 2396.93 201.209 2438.67 203.603C2605.52 214.046 2808.33 240.525 2960.38 272.178C2976.6 275.772 2990.63 279.036 3000.61 281.392L3012.26 284.191C3014.96 284.863 3016.42 285.255 3016.42 285.255C3015.2 286.728 3004.03 283.815 2996.74 285.777C2996.38 285.867 2995.99 285.68 2995.63 285.907C2995.08 286.238 2994.41 286.1 2992.85 285.356C2991.2 284.557 2990.53 284.457 2989.34 284.806C2988.31 285.111 2987.26 285.004 2985.72 284.437C2982.85 283.377 2974.73 281.638 2974.44 282.021C2974.3 282.182 2972.23 281.827 2969.83 281.226C2966.68 280.43 2963.87 279.761 2961.43 279.201L2958.02 278.431L2956.53 278.099L2952.32 277.254C2936.52 274.14 2927.61 272.601 2926.13 272.604C2923.93 272.608 2922.21 272.204 2919.98 271.302C2917.98 270.473 2915.73 270.005 2913.8 270.001C2909.81 269.977 2893.49 266.956 2892.19 266.028C2891.66 265.629 2889.56 265.019 2887.5 264.664C2885.48 264.308 2884.55 264.513 2885.5 265.076C2886.98 265.979 2884.51 265.636 2869.34 262.818C2859.45 260.993 2851.34 259.688 2851.2 259.909C2851.05 260.13 2848.92 259.738 2846.4 258.981C2843.92 258.245 2840.89 257.603 2839.58 257.542C2838.32 257.48 2835.43 256.931 2833.18 256.345C2829.05 255.242 2805.07 251.533 2753.41 243.552C2738.44 241.083 2723.94 239.271 2721.65 238.765C2719.37 238.299 2716.37 237.97 2715.15 238.045C2713.89 238.12 2707.46 237.358 2700.8 236.346C2689.09 234.553 2679.04 233.362 2662.04 231.74C2657.53 231.318 2652.96 230.64 2651.83 230.238C2651.27 230.077 2647.79 229.429 2642.52 228.81C2637.25 228.192 2630.23 227.448 2622.83 226.693C2608.79 225.282 2594.4 223.821 2591.01 223.484C2590.22 223.409 2589.1 223.303 2588.5 223.28C2587.54 223.229 2581.18 222.563 2576.36 222.011C2572.3 221.576 2551.18 219.322 2547.91 219.14C2546.07 218.995 2541.97 218.699 2538.76 218.436C2534.05 218.058 2522.48 217.167 2511.28 216.286C2510.35 216.213 2505.46 215.959 2500.36 215.731C2495.25 215.502 2490.62 215.26 2490.05 215.197L2487.59 214.913C2486.8 214.817 2480.13 214.437 2472.75 214.056C2465.37 213.715 2455.39 213.054 2450.52 212.918C2445.66 212.741 2434.86 212.341 2426.54 212.027C2416.7 211.677 2398.99 210.922 2380.49 210.111C2371.24 209.745 2361.8 209.186 2353.01 208.965C2344.21 208.744 2336.09 208.542 2329.53 208.374C2318.19 208.068 2299.41 207.678 2287.83 207.497C2283.91 207.452 2277.87 207.309 2270.31 207.111C2266.54 207.041 2262.41 206.844 2257.9 206.815L2243.63 206.73C2223.58 206.534 2199.78 206.328 2176.98 206.112C2171.29 206.078 2165.65 205.924 2160.14 205.982C2154.64 206.041 2149.28 206.096 2144.09 206.145C2133.74 206.224 2124.25 206.298 2116.2 206.37C2108.13 206.404 2101.49 206.416 2096.88 206.45L2091.51 206.425C2090.28 206.401 2089.61 206.382 2089.65 206.341L2083.95 206.306C2080.42 206.309 2075.57 206.31 2070.21 206.305C2059.51 206.355 2045.27 206.781 2038.53 206.855C2028.36 207.007 2004.02 207.604 1973.54 208.397C1943.12 209.639 1906.6 211.648 1872.01 213.364C1846.32 215.222 1812.57 217.683 1797.08 218.796C1787.19 219.55 1778.01 220.049 1769.46 220.865C1760.92 221.68 1752.93 222.44 1745.28 223.151C1729.98 224.632 1716.08 225.975 1702.01 227.322C1694.95 228.017 1687.89 228.71 1680.54 229.433C1673.22 230.194 1665.73 231.215 1657.75 232.172C1641.83 234.164 1624.16 236.363 1603.16 238.992L1581.19 241.747C1573.66 242.849 1566.02 243.974 1558.72 245.049C1544.06 247.162 1530.75 249.098 1522.25 250.326C1514.9 251.364 1507.6 252.419 1500.37 253.433C1493.09 254.469 1485.89 255.482 1478.82 256.749C1464.66 259.201 1450.62 261.652 1436.65 264.08C1422.72 266.586 1408.78 269.072 1394.85 271.578C1380.36 274.337 1365.84 277.096 1351.22 279.878C1338.28 282.296 1327.16 284.209 1317.79 285.915C1308.41 287.583 1300.78 288.963 1294.7 289.904C1282.54 291.887 1276.75 292.762 1276.23 292.737C1275.97 292.744 1275.41 292.8 1275 292.93C1274.27 293.069 1263 295.066 1247.58 297.338L1222.2 301.039L1208.77 302.979C1204.29 303.56 1199.87 304.138 1195.64 304.693C1173.75 307.525 1161.4 309.296 1160.77 309.689C1160.08 310.102 1159.52 310.158 1159.03 309.856C1158.65 309.65 1152.93 310.149 1135.59 312.024C1126.94 312.92 1115.39 314.353 1100.09 315.795C1084.79 317.296 1065.85 319.355 1042.29 321.308C1029.89 322.391 1021.9 323.073 1016.99 323.409C1012.08 323.707 1010.26 323.681 1010.21 323.465C1010.13 323.034 1009.94 323.059 1009.47 323.546C1009.22 323.809 1006.55 324.141 998.967 324.811C991.386 325.421 978.905 326.546 959.051 327.783C944.923 328.64 932.839 329.36 921.61 330.035C910.378 330.592 899.998 331.007 889.285 331.451L872.804 332.098C867.11 332.281 861.229 332.39 854.902 332.551C848.612 332.691 841.949 332.823 834.728 332.989C827.507 333.156 819.765 333.299 811.348 333.322C803.528 333.387 787.553 333.509 775.824 333.607C764.093 333.627 749.339 333.458 743.006 333.382C736.671 333.288 722.292 333.206 711.111 332.934C697.882 332.662 686.665 332.45 676.901 332.236C667.133 331.886 658.817 331.552 651.434 331.23C644.907 330.924 632.567 330.508 624.1 330.061C603.322 328.94 588.849 328.171 578.7 327.515C564.934 326.746 554.004 326.093 547.92 325.656C535.869 324.937 516.457 323.344 504.7 322.477C477.387 320.735 424.68 315.306 404.68 312.745C400.42 312.236 395.561 311.665 391.114 311.123C386.702 310.52 382.776 309.982 380.308 309.639C375.41 308.951 365.312 307.505 357.832 306.438L342.799 304.307L340.184 304.046C339.587 303.985 334.984 303.23 329.932 302.369C324.878 301.509 319.977 300.703 319.042 300.572C307.638 299.026 295.823 297.413 291.07 296.603C287.815 296.086 283.7 295.435 281.829 295.153C278.572 294.596 256.95 291.253 252.797 290.623C247.858 289.819 241.457 288.701 240.521 288.492C239.958 288.37 238.835 288.145 238.049 288.011C234.641 287.379 220.082 284.879 206.003 282.286C191.209 279.38 177.918 276.961 176.502 276.942C175.086 276.924 170.332 276.094 165.983 275.076C149.63 271.07 139.806 268.77 127.748 266.514C120.859 265.253 114.633 263.717 113.725 263.211C112.817 262.724 109.965 261.998 107.496 261.615C104.989 261.214 90.669 257.959 75.6691 254.388C50.4501 247.72 31.7317 243.054 19.3735 239.388L4.65725 235.316L0.228896 234.142L-1.27151 233.771C-1.64652 233.683 -1.53319 233.739 -1.68256 233.724C-2.38963 233.744 -3.02742 233.584 -3.14466 233.391C-3.26249 233.178 -4.01011 233.081 -4.8644 233.165C-5.71861 233.248 -6.20578 233.144 -5.98872 232.92C-5.77106 232.718 -7.35258 232.112 -9.6023 231.585C-12.9425 230.696 -13.3586 230.471 -12.365 230.049C-11.7392 229.794 -11.5255 229.454 -11.976 229.328C-12.3898 229.183 -13.0958 229.242 -13.5373 229.432C-14.5669 229.895 -18.1327 228.933 -18.2668 228.149C-18.3146 227.776 -18.8763 227.673 -19.8004 227.917C-20.8357 228.183 -21.2479 228.096 -21.2614 227.623C-21.2788 227.013 -28.157 224.826 -41.2191 221.278C-43.6974 220.6 -45.5791 219.925 -45.3966 219.782C-45.1779 219.618 -47.0607 218.904 -49.428 218.163C-51.7959 217.404 -54.5394 216.556 -56.2993 216.232C-58.1709 215.872 -58.9647 215.461 -59.0944 214.834C-59.2273 214.129 -59.7934 213.869 -62.1098 213.581C-64.2415 213.307 -64.8806 213.069 -64.6691 212.649C-64.5291 212.349 -65.0895 212.287 -65.1325 212.071C-66.2609 207.769 -77.5688 204.388 -75.8193 203.057C-75.8193 203.057 -75.1813 203.217 -74.0169 203.577C-72.8513 203.938 -71.1606 204.461 -69.0188 205.129C-64.7335 206.484 -58.5336 208.415 -51.0917 210.764C-43.7224 213.193 -34.639 215.653 -24.986 218.49C-20.1414 219.889 -15.1092 221.34 -9.96413 222.829C-7.41049 223.564 -4.78186 224.316 -2.19051 225.069C0.474196 225.782 3.1756 226.472 5.87747 227.184C60.3423 243.281 118.286 257.308 174.699 268.582C188.891 271.269 202.825 274.043 216.603 276.546C230.488 278.927 244.149 281.256 257.436 283.517C270.902 285.555 283.995 287.546 296.713 289.468C303.036 290.469 309.39 291.253 315.597 292.081C321.803 292.908 327.896 293.699 333.915 294.493C339.897 295.268 345.768 296.085 351.523 296.768C357.315 297.43 362.994 298.075 368.524 298.706C379.584 299.927 390.049 301.224 400.058 302.198L428.106 304.885C432.438 305.292 436.621 305.686 440.617 306.083C444.613 306.442 448.457 306.707 452.115 306.997C466.71 308.116 478.318 309.026 486.307 309.645C494.33 310.204 498.843 310.39 499.215 310.399C500.369 310.347 499.536 309.917 497.363 309.428C497.288 309.43 496.204 309.323 494.152 309.164C492.099 309.007 489.113 308.816 485.267 308.453C477.538 307.767 466.299 306.788 452.036 305.541C444.905 304.956 437.062 304.156 428.581 303.255C420.064 302.376 410.912 301.415 401.087 300.395C391.3 299.375 381.019 298.014 370.144 296.729C364.724 296.076 359.119 295.388 353.438 294.703C347.72 294.02 341.995 293.139 336.088 292.342C324.308 290.649 311.972 289.072 299.402 287.106C286.868 285.119 273.885 283.047 260.603 280.944C247.463 278.6 233.986 276.187 220.21 273.724C206.506 271.18 192.755 268.302 178.671 265.513C122.733 253.93 65.0767 239.52 10.6351 222.929C7.85475 222.083 5.07448 221.237 2.33141 220.389C-0.375535 219.501 -3.0454 218.612 -5.67785 217.722C-10.9796 215.962 -16.1692 214.219 -21.1704 212.549C-26.1718 210.879 -30.9852 209.264 -35.5726 207.74C-40.0864 206.174 -44.2282 204.598 -48.1049 203.192C-55.7847 200.338 -62.1086 197.977 -66.5513 196.311C-70.9578 194.624 -73.4061 193.63 -73.2973 193.529C-72.3904 192.695 -71.857 191.813 -72.0887 191.524C-72.0898 191.485 -71.3764 191.701 -69.9101 192.151C-68.4828 192.603 -66.3778 193.272 -63.7091 194.122C-58.4464 195.823 -50.9654 198.25 -42.3569 201.038C-33.8571 203.908 -23.7931 206.792 -13.7635 209.776C-3.66116 212.699 6.29965 215.882 15.8292 218.309C27.0575 221.535 37.9852 224.671 48.5003 227.7C59.2324 230.506 69.5147 233.207 79.3086 235.764C84.2236 237.023 88.917 238.347 93.6409 239.434L107.328 242.667C116.177 244.759 124.389 246.692 131.851 248.449C147.029 251.759 159.393 254.302 168.011 256.124C176.593 257.968 181.645 258.808 182.092 258.815C183.806 258.825 184.316 258.436 183.297 257.954C182.472 257.76 163.951 253.501 133.846 246.599C126.419 244.742 118.317 242.728 109.576 240.535C100.836 238.361 91.459 236.067 81.8467 233.347C72.1622 230.708 61.9888 227.906 51.366 225.017C40.9975 221.905 30.1792 218.688 19.0975 215.379C10.0055 212.624 0.519496 209.112 -9.14516 205.862C-18.7373 202.55 -28.3253 199.376 -36.3482 196.236C-44.4812 193.159 -51.5218 190.503 -56.4915 188.616C-61.4629 186.709 -64.3254 185.569 -64.1032 185.523C-63.3246 185.402 -62.665 185.029 -62.5992 184.712C-62.5072 184.02 -58.0853 182.376 -57.1821 182.705C-56.8433 182.833 -55.319 182.731 -53.798 182.51C-52.2771 182.289 -50.9001 182.27 -50.7069 182.501C-50.5149 182.731 -49.7714 182.671 -49.0347 182.374C-48.7774 182.268 -48.3705 182.158 -47.8894 182.065L-43.6393 183.52C-42.9996 183.738 -41.6069 184.231 -40.5167 184.613L-31.0749 187.87C-30.7738 187.98 -29.1183 188.563 -27.3879 189.164C-25.6574 189.764 -24.1148 190.311 -23.8893 190.384L-23.0244 190.674L-17.9459 192.44C-15.3895 193.273 -11.8941 194.375 -10.2027 194.918C-8.51114 195.461 -4.78986 196.655 -1.89505 197.597C1.52514 198.681 7.68964 200.653 14.1546 202.714C17.3865 203.725 20.6213 204.834 23.812 205.708C31.7368 208.024 39.0611 210.179 44.9577 211.902C49.5401 213.248 54.8356 214.791 60.5073 216.461C66.3245 218.009 72.5172 219.665 78.7104 221.34C91.1329 224.65 103.521 228.059 113.343 230.3C119.569 231.817 128.983 234.09 140.684 236.927C152.494 239.643 166.846 242.701 182.588 246.172C194.802 248.719 208.246 251.291 222.519 254.173C236.864 256.975 252.358 259.587 268.457 262.535C276.543 263.959 284.959 265.216 293.453 266.608C301.983 267.941 310.593 269.449 319.493 270.711L346.605 274.567C351.205 275.224 355.805 275.86 360.442 276.516C365.114 277.092 369.823 277.686 374.57 278.26C384.026 279.428 393.594 280.613 403.201 281.816C412.915 282.859 422.665 283.9 432.49 284.959C437.384 285.49 442.316 286.018 447.247 286.527C452.179 287.057 457.181 287.446 462.148 287.915C472.118 288.812 482.088 289.709 492.058 290.606C532.111 293.758 572.302 296.491 611.153 297.982C688.756 301.341 760.416 301.383 812.453 300.31C818.969 300.242 825.147 300.085 831.027 299.917C836.908 299.75 842.452 299.591 847.625 299.443C857.97 299.128 866.941 298.97 874.232 298.624C888.851 298.009 896.961 297.679 896.961 297.679C902.577 297.421 908.79 297.145 915.634 296.83C922.476 296.439 929.949 295.988 938.055 295.521L964.454 293.939C973.895 293.256 984.042 292.533 994.895 291.75C1104.64 283.453 1210.17 271.061 1319.34 252.871C1335.28 250.406 1359.66 245.789 1387.06 241.145C1414.44 236.462 1444.32 231.373 1470 226.994C1489.65 224.01 1507.87 221.421 1524.82 218.908C1541.8 216.452 1557.53 214.053 1572.52 212.009C1602.66 208.311 1629.49 205.043 1655.95 201.784C1669.12 200.03 1682.46 198.939 1695.94 197.55C1709.47 196.217 1723.28 194.838 1737.76 193.399C1766.61 190.212 1798.47 188.198 1835.86 185.239C1843.22 184.674 1852.69 183.95 1863.58 183.108C1874.48 182.422 1886.78 181.814 1899.69 181.09C1912.6 180.388 1926.09 179.667 1939.4 178.933C1952.72 178.237 1965.88 177.368 1978.13 177.116C1994.49 176.59 2011.13 176.056 2027.72 175.523L2052.62 174.713C2056.75 174.595 2060.88 174.438 2065.01 174.3C2069.14 174.261 2073.23 174.204 2077.33 174.165C2110.06 173.861 2141.78 173.329 2170.6 173.235C2199.4 173.535 2225.3 173.8 2246.42 174.025C2267.54 174.071 2283.76 174.908 2293.34 175.167C2306.06 175.592 2332.94 176.479 2353.1 177.144C2363.21 177.387 2372.27 177.956 2378.88 178.319C2385.48 178.682 2389.57 178.92 2389.62 178.919C2390.36 178.956 2410.32 180.061 2440.76 181.733C2448.37 182.166 2456.64 182.56 2465.42 183.136C2474.15 183.813 2483.37 184.535 2493 185.285C2512.22 186.785 2533.02 188.397 2554.22 190.037C2559.52 190.398 2564.83 190.917 2570.1 191.476L2585.96 193.09C2596.54 194.168 2607.11 195.226 2617.53 196.287C2638.3 198.452 2658.57 200.238 2676.74 202.713C2713.23 207.306 2742.98 210.928 2757.29 212.844C2778.29 215.988 2812.25 221.046 2832.78 224.105C2838.69 225.02 2845.38 225.912 2852.45 227.109C2859.49 228.346 2867.05 229.667 2874.91 231.038C2890.64 233.781 2907.55 236.745 2924.1 239.662C2932.38 241.139 2940.61 242.48 2948.44 243.99C2956.27 245.5 2963.79 246.961 2970.83 248.316L2983.98 250.935L2993.26 252.797L3001.88 254.541L3007.65 255.736L3008.63 255.944L3012.59 256.777L3016.83 257.66C3021.18 258.581 3025.65 259.556 3027.48 259.957L3031.04 260.722L3035.8 261.769C3035.88 262.022 3035.96 262.256 3035.93 262.415C3035.83 262.89 3036.17 263.255 3036.65 263.202C3037.14 263.168 3037.9 263.758 3038.33 264.553C3038.77 265.328 3039.46 266.037 3039.83 266.126C3040.84 266.353 3040.51 269.14 3039.45 269.545C3038.93 269.737 3038.69 270.217 3038.92 270.624C3038.96 270.721 3036.9 270.366 3033.23 269.664L3017.99 266.769C3005.33 264.353 2988.41 261.151 2971.44 258.11C2962.2 256.364 2952.98 254.598 2943.77 252.852C2934.6 251.085 2925.25 249.638 2916.07 248.028C2897.69 244.888 2879.62 241.819 2862.14 238.831C2844.77 235.682 2827.5 233.378 2811.23 231.005C2794.96 228.653 2779.55 226.433 2765.33 224.376C2758.2 223.398 2751.46 222.271 2744.85 221.553L2726.16 219.329C2714.43 217.95 2704.11 216.747 2695.63 215.729C2678.59 213.752 2668.61 212.639 2667.98 212.677L2667.68 212.666ZM1660.2 214.922C1640.88 217.819 1623.62 220.163 1607.19 222.268C1590.75 224.412 1574.97 226.085 1558.92 228.513C1542.77 230.807 1526.13 233.193 1507.53 235.833C1498.26 237.2 1488.51 238.622 1478.13 240.238C1467.86 242.068 1457.01 244.033 1445.33 246.199C1421.99 250.53 1400.31 254.302 1379.59 257.849C1358.69 261.48 1339.05 264.918 1320.02 267.687L1292.18 271.891C1283.01 273.158 1274.03 274.399 1265.17 275.637C1247.48 278.211 1230.1 280.362 1212.9 282.785C1143.93 292.301 1085.37 297.283 1051.98 300.443C1035.85 301.849 1021.77 303.059 1009.59 304.116C997.36 305.037 987.064 305.804 978.517 306.442C961.46 307.796 951.343 308.262 947.144 308.599C942.943 308.876 944.58 308.81 950.902 308.472L963.732 307.771L982.652 306.481L1006.78 304.807C1015.59 304.22 1025.06 303.34 1035.17 302.558C1045.24 301.699 1055.9 300.961 1066.93 299.877C1077.97 298.833 1089.41 297.759 1101.15 296.655C1147.98 291.968 1198.9 286.061 1244.5 279.99C1256.79 278.339 1268.39 276.648 1279.57 275.088C1285.13 274.278 1290.62 273.55 1295.96 272.728C1301.3 271.906 1306.49 271.088 1311.64 270.291C1321.92 268.657 1331.81 267.094 1341.49 265.557C1351.1 263.883 1360.5 262.256 1369.77 260.651C1388.12 257.487 1406.05 254.374 1424.58 251.166C1443 247.941 1462.05 244.598 1482.69 240.975C1524.38 234.563 1539.35 232.343 1549.36 230.875L1563.4 228.858C1568.63 228.118 1575.33 227.02 1586.39 225.699C1638.35 219.133 1660.27 214.901 1660.27 214.901L1660.2 214.922Z" fill="#00BCF1"/>
</g>
</svg>
